<?xml version="1.0" encoding="UTF-8"?>
<svg width="137px" height="83px" viewBox="0 0 137 83" version="1.1" xmlns="http://www.w3.org/2000/svg" xmlns:xlink="http://www.w3.org/1999/xlink">
    <title>FIll 104</title>
    <g id="Page-1" stroke="none" stroke-width="1" fill="none" fill-rule="evenodd">
        <g id="medialoot-hand-drawn-vector-arrows-tonythomas" transform="translate(-221.000000, -828.000000)" fill="#000000">
            <path d="M304.4187,894.8822 C304.7607,895.1682 305.0537,895.6322 305.1607,896.0682 C306.2837,900.6532 308.8317,904.5572 311.1717,908.5432 C314.4067,914.0562 317.9237,919.3872 321.6097,924.6202 C323.9947,928.0072 326.1367,931.5722 328.6287,934.8972 C329.1947,935.6532 329.6047,936.5342 330.0287,937.3872 C330.3597,938.0542 329.8727,939.0642 329.1337,939.3592 C328.6907,939.5362 328.2467,939.7882 327.7857,939.8322 C323.1777,940.2672 318.6167,941.2122 313.9487,941.2082 C311.7227,941.0172 309.4967,940.8152 307.2687,940.6352 C305.1987,940.4682 303.1267,940.3362 301.0567,940.1662 C292.7067,939.4772 284.6087,937.8452 277.1987,933.6972 C276.5087,933.3122 275.8587,932.8482 275.2217,932.3772 C274.7927,932.0602 274.6917,931.1082 274.9927,930.6222 C275.3487,930.0492 275.8537,929.6192 276.5467,929.7382 C277.1617,929.8442 277.7937,930.0502 278.3377,930.3552 C285.4617,934.3492 293.2387,935.9962 301.2627,936.6602 L302.176714,936.73601 L302.176714,936.73601 L304.005089,936.8862 C310.10046,937.378387 316.203787,937.750939 322.3177,936.9492 C322.9417,936.8672 323.5717,936.7222 324.1547,936.4922 C324.3597,936.4122 324.6087,935.9072 324.5307,935.7402 C324.1977,935.0292 323.7717,934.3572 323.3387,933.6992 C322.158336,931.904473 320.962436,930.119663 319.76258,928.337401 L317.961278,925.664999 C313.157617,918.538779 308.383336,911.394382 304.3797,903.7602 C303.2597,901.6232 302.2337,899.4712 301.8977,897.0562 C301.8327,896.5912 301.8047,896.1042 301.8707,895.6432 C301.9707,894.9312 302.5057,894.4932 303.1567,894.4252 C303.5647,894.3832 304.0897,894.6062 304.4187,894.8822 Z M254.6362,816.6087 C254.5332,817.2347 254.4342,817.8777 254.2022,818.4617 C253.7322,819.6497 253.2022,820.8167 252.6442,821.9657 C248.8202,829.8317 247.0852,838.2817 245.9262,846.8487 C245.0612,853.2427 245.6472,859.6277 247.1242,865.8977 C247.8922,869.1597 248.8142,872.3967 249.8802,875.5747 C251.7272,881.0837 254.8352,885.9617 258.2002,890.6237 C262.6202,896.7487 268.0942,901.8857 273.9652,906.6357 C280.2132,911.6897 287.0422,915.8537 294.0862,919.5997 C300.2782,922.8927 306.6512,925.9007 313.2542,928.3547 C314.2882,928.7397 315.2682,929.2797 316.2472,929.7967 C316.6812,930.0267 316.8782,931.0847 316.5402,931.5367 C316.2762,931.8877 315.8752,932.2307 315.4682,932.3567 C315.0422,932.4877 314.5132,932.4367 314.0682,932.3187 C313.1442,932.0717 312.2222,931.7827 311.3412,931.4137 C303.5272,928.1467 295.7222,924.8537 288.4092,920.5387 C284.9692,918.5087 281.5202,916.4757 278.2142,914.2377 C275.3072,912.2697 272.5052,910.1217 269.8142,907.8657 C264.1642,903.1267 258.9392,897.9397 254.6632,891.9077 C249.2412,884.2567 245.5302,875.8277 243.6232,866.6127 C242.7452,862.3737 242.3422,858.0847 241.9332,853.7897 C241.6917,851.2472 242.04645,848.749137 242.430872,846.263028 L242.622932,845.020819 C242.686028,844.606981 242.747325,844.193325 242.8042,843.7797 C244.0542,834.7027 246.5552,825.9697 250.6642,817.7407 C251.0182,817.0307 251.3822,816.3067 251.8682,815.6907 C252.1272,815.3627 252.6592,815.2497 252.8672,815.1427 C253.8712,815.0577 254.7532,815.8927 254.6362,816.6087 Z" id="FIll-104" transform="translate(285.994350, 878.172458) scale(1, -1) rotate(-36.000000) translate(-285.994350, -878.172458) "></path>
        </g>
    </g>
</svg>