<svg xmlns="http://www.w3.org/2000/svg" shape-rendering="geometricPrecision" text-rendering="geometricPrecision" image-rendering="optimizeQuality" fill-rule="evenodd" clip-rule="evenodd" viewBox="0 0 278 511.64"><path fill="#D5D5D5" d="M10.275 0h257.45C273.377 0 278 4.623 278 10.275v334.673c0 5.651-4.623 10.275-10.275 10.275H10.275C4.623 355.223 0 350.599 0 344.948V10.275C0 4.623 4.623 0 10.275 0z"/><path fill="#EAE9EB" d="M33.352 23.077h211.296c5.652 0 10.275 4.628 10.275 10.275v311.596c0 5.646-4.628 10.275-10.275 10.275H33.352c-5.647 0-10.275-4.624-10.275-10.275V33.352c0-5.652 4.623-10.275 10.275-10.275z"/><path fill="#3F3825" d="M46.537 69.207c-.34 4.969.59 10.421 2.279 15.521 2.613 7.892 4.939 14.7 14.178 14.842 6.704.103 10.695-3.69 13.375-8.9 2.335-4.54 4.125-10.262 4.583-15.878.852-10.443-2.73-18.779-13.917-20.886-9.063-1.707-19.619 2.448-20.498 15.301z"/><path fill="#FAE0BC" d="M60.134 283.521l6.497-.049c3.504-.026 6.353-2.918 6.33-6.426L71.68 96.725c-5.944 1.588-12.185-.134-18.148-1.53l1.581 183.375c.024 2.736 2.281 4.972 5.021 4.951z"/><path fill="#D9A550" d="M66.663 283.472c3.492-.044 6.322-2.931 6.298-6.427l-1.28-180.336c-1.893.505-3.785.644-5.675.658l.657 186.105z"/><path fill="#3F3825" d="M96.043 69.207c-.339 4.969.59 10.421 2.279 15.521 2.612 7.892 4.939 14.7 14.178 14.842 6.704.103 10.695-3.69 13.374-8.9 2.335-4.54 4.126-10.262 4.584-15.878.852-10.443-2.73-18.779-13.917-20.886-9.063-1.707-19.62 2.448-20.498 15.301z"/><path fill="#FAE0BC" d="M109.64 283.521l6.496-.049c3.505-.026 6.354-2.918 6.332-6.426l-1.282-180.321c-5.944 1.588-12.185-.134-18.149-1.53l1.581 183.375c.025 2.736 2.282 4.972 5.022 4.951z"/><path fill="#D9A550" d="M116.169 283.472c3.492-.044 6.321-2.931 6.298-6.427l-1.28-180.336c-1.893.505-3.785.644-5.675.658l.657 186.105z"/><path fill="#3F3825" d="M145.549 69.207c-.34 4.969.59 10.421 2.279 15.521 2.613 7.892 4.939 14.7 14.177 14.842 6.704.103 10.696-3.69 13.375-8.9 2.336-4.54 4.126-10.262 4.584-15.878.851-10.443-2.73-18.779-13.917-20.886-9.064-1.707-19.62 2.448-20.498 15.301z"/><path fill="#FAE0BC" d="M159.146 283.521l6.496-.049c3.505-.026 6.354-2.918 6.331-6.426l-1.281-180.321c-5.945 1.588-12.185-.134-18.149-1.53l1.581 183.375c.025 2.736 2.282 4.972 5.022 4.951z"/><path fill="#D9A550" d="M165.675 283.472c3.491-.044 6.321-2.931 6.298-6.427l-1.28-180.336c-1.893.505-3.785.644-5.676.658l.658 186.105z"/><path fill="#3F3825" d="M195.054 69.207c-.339 4.969.591 10.421 2.279 15.521 2.613 7.892 4.94 14.7 14.178 14.842 6.704.103 10.695-3.69 13.375-8.9 2.335-4.54 4.125-10.262 4.584-15.878.851-10.443-2.731-18.779-13.917-20.886-9.064-1.707-19.62 2.448-20.499 15.301z"/><path fill="#FAE0BC" d="M208.651 283.521l6.497-.049c3.505-.026 6.353-2.918 6.331-6.426l-1.281-180.321c-5.945 1.588-12.185-.134-18.149-1.53l1.581 183.375c.025 2.736 2.282 4.972 5.021 4.951z"/><path fill="#D9A550" d="M215.181 283.472c3.491-.044 6.321-2.931 6.298-6.427l-1.281-180.336c-1.893.505-3.785.644-5.675.658l.658 186.105z"/><path fill="#E4483F" d="M10.275 156.417h257.45c5.652 0 10.275 4.623 10.275 10.275v334.673c0 5.651-4.623 10.275-10.275 10.275H10.275C4.623 511.64 0 507.016 0 501.365V166.692c0-5.652 4.623-10.275 10.275-10.275z"/><path fill="#EDBB39" d="M33.352 179.494h211.296c5.652 0 10.275 4.631 10.275 10.275v288.519c0 5.644-4.631 10.275-10.275 10.275H33.352c-5.644 0-10.275-4.624-10.275-10.275V189.769c0-5.652 4.623-10.275 10.275-10.275z"/><path fill="#FFC928" d="M131.833 438.686l13.497-5.252.015-.012c52.163-50.195-13.867-97.188-4.131-117.724-36.853 26.271-10.406 120.698-9.381 122.988z"/><path fill="#F77D02" d="M155.014 229.37c-53.777 46.144-85.623 110.049-49.794 163.874 8.942 13.433 20.487 19.945 26.614 33.996-1.028-2.29-27.475-96.717 9.38-122.989-9.739 20.537 56.304 67.536 4.117 117.736 98.954-71.098-7.606-156.15 9.686-192.617h-.003z"/></svg>